<svg version="1.0" xmlns="http://www.w3.org/2000/svg"
viewBox="0 0 230.000000 230.000000"
preserveAspectRatio="xMidYMid meet">
    <g transform="translate(0.000000,230.000000) scale(0.100000,-0.100000)"
    stroke="none" fill="#666666">
        <path d="M470 2196 c0 -32 -3 -35 -32 -38 -30 -3 -33 -6 -36 -40 -3 -37 -3
        -38 32 -38 34 0 36 -2 36 -35 0 -33 2 -35 35 -35 33 0 35 2 35 35 0 33 2 35
        35 35 34 0 35 1 35 41 0 39 -1 40 -32 37 -30 -3 -33 -6 -36 -40 -3 -36 -5 -38
        -38 -38 -35 0 -35 1 -32 38 3 34 6 37 36 40 29 3 32 6 32 38 0 32 -2 34 -35
        34 -33 0 -35 -2 -35 -34z"/>
        <path d="M1117 2224 c-4 -4 -7 -20 -7 -35 0 -24 -4 -28 -32 -31 -30 -3 -33 -6
        -36 -40 -3 -37 -3 -38 32 -38 34 0 36 -2 36 -35 0 -34 1 -35 40 -35 39 0 40 1
        40 35 0 33 2 35 36 35 35 0 35 1 32 38 -3 34 -6 37 -35 40 -28 3 -32 7 -35 35
        -3 27 -7 32 -33 35 -17 2 -34 0 -38 -4z m71 -106 l3 -38 -40 0 c-40 0 -41 1
        -41 33 0 42 7 49 45 45 27 -3 30 -7 33 -40z"/>
        <path d="M1684 2166 c-60 -34 -217 -124 -349 -200 -132 -77 -330 -191 -440
        -254 -110 -63 -204 -118 -210 -122 -5 -4 -37 -22 -70 -40 -105 -57 -110 -66
        -70 -134 l25 -43 -94 -5 c-110 -6 -145 -22 -191 -87 l-30 -43 0 -516 c0 -469
        2 -520 17 -548 21 -39 71 -82 106 -92 15 -4 381 -7 813 -7 773 0 787 0 809 20
        41 36 50 76 50 214 0 118 2 131 20 144 67 47 67 211 0 247 -18 10 -19 25 -22
        299 -3 284 -3 290 -26 320 -21 29 -22 51 -2 51 14 0 194 110 202 124 5 8 -19
        59 -64 137 -39 68 -79 138 -88 155 -37 65 -175 302 -212 366 -22 36 -45 69
        -52 71 -8 3 -62 -23 -122 -57z m138 -94 c21 -37 100 -175 177 -307 103 -179
        136 -243 127 -251 -6 -6 -74 -47 -151 -91 -77 -44 -188 -108 -248 -142 -80
        -47 -115 -61 -138 -59 -28 3 -12 14 132 97 243 139 272 159 264 179 -18 48
        -16 69 9 99 14 17 26 37 26 45 0 8 -23 54 -52 103 -28 50 -63 112 -77 138 -14
        27 -37 62 -51 79 -23 27 -27 29 -52 17 -31 -13 -82 1 -92 27 -10 27 -57 13
        -163 -49 -150 -88 -360 -210 -413 -240 -25 -14 -115 -66 -200 -115 l-155 -90
        3 -54 c2 -47 -1 -57 -23 -78 -32 -30 -32 -39 6 -106 31 -55 31 -56 9 -52 -17
        2 -38 31 -86 113 -35 61 -64 115 -64 120 0 6 17 19 38 31 20 11 114 65 207
        119 94 54 271 157 395 228 124 72 293 170 375 218 83 48 152 88 155 88 3 1 22
        -29 42 -67z m-140 -152 c19 -11 51 -20 74 -20 l42 0 71 -125 71 -124 -20 -33
        c-11 -19 -20 -51 -20 -74 0 -39 -1 -41 -72 -81 -40 -22 -89 -50 -108 -61 l-35
        -21 0 102 c0 87 -3 108 -23 145 -45 84 -124 149 -217 177 -15 5 -3 15 60 52
        44 25 94 54 110 64 36 23 28 23 67 -1z m-195 -208 c143 -74 177 -277 65 -395
        -116 -123 -328 -86 -403 70 -60 123 6 290 133 337 57 21 151 15 205 -12z
        m-429 -149 c-26 -94 13 -227 90 -305 l36 -38 -99 0 c-98 0 -100 1 -77 18 16
        13 23 26 20 43 -4 33 -39 36 -74 5 -26 -22 -27 -27 -16 -45 12 -20 10 -21 -31
        -21 -41 0 -44 2 -75 56 l-32 56 20 25 c13 17 20 41 20 69 0 48 4 52 135 124
        33 18 64 36 70 41 19 18 23 8 13 -28z m-423 -303 c8 -16 15 -31 15 -34 0 -3
        -55 -7 -122 -8 l-123 -3 0 -30 0 -30 745 0 745 0 0 30 c0 29 -1 30 -60 35
        l-60 5 55 32 c65 39 123 44 140 14 5 -11 10 -58 10 -105 l0 -86 -785 0 c-847
        0 -828 -1 -856 51 -27 51 -3 130 44 149 12 5 70 9 129 9 l107 1 16 -30z m-287
        -232 c10 -10 193 -14 820 -18 l807 -5 3 -142 3 -143 -112 0 -111 0 -34 -34
        c-33 -33 -34 -37 -34 -108 0 -121 35 -148 195 -148 l95 0 0 -125 c0 -112 -2
        -127 -20 -145 -20 -20 -28 -21 -790 -18 -762 3 -769 3 -797 24 -15 11 -33 36
        -40 55 -14 39 -19 819 -5 819 4 0 14 -6 20 -12z m1692 -397 c15 -30 12 -97 -6
        -115 -12 -13 -39 -16 -125 -16 -139 0 -149 5 -149 73 0 29 5 58 12 65 8 8 53
        12 135 12 111 0 123 -2 133 -19z"/>
        <path d="M1736 1739 c-30 -23 -33 -41 -11 -59 13 -11 22 -10 50 3 36 17 45 43
        23 65 -17 17 -32 15 -62 -9z"/>
        <path d="M1255 1668 c-7 -26 -17 -74 -22 -113 -9 -74 57 -123 139 -102 48 12
        68 4 68 -27 0 -36 -35 -44 -66 -15 -20 18 -29 21 -42 13 -9 -6 -18 -20 -20
        -31 -4 -27 51 -73 88 -73 16 0 32 -4 35 -10 19 -30 67 4 58 40 -3 10 0 21 6
        24 17 11 13 89 -5 115 -26 37 -73 52 -122 39 -23 -6 -49 -8 -57 -4 -21 8 -16
        45 7 60 13 8 22 5 42 -13 30 -28 66 -21 66 13 0 31 -40 66 -84 73 -20 3 -39
        10 -42 14 -8 14 -44 11 -49 -3z"/>
        <path d="M412 568 c-8 -8 -12 -56 -12 -149 0 -130 1 -137 24 -162 33 -35 50
        -38 196 -35 l125 3 0 30 0 30 -124 3 c-71 1 -130 7 -138 14 -9 7 -13 44 -13
        132 0 119 -6 146 -35 146 -6 0 -16 -5 -23 -12z"/>
        <path d="M1807 604 c-4 -4 -7 -18 -7 -30 0 -27 34 -40 76 -30 20 5 25 12 22
        34 -3 24 -8 27 -43 30 -23 2 -44 0 -48 -4z"/>
        <path d="M790 1975 c0 -33 -2 -35 -35 -35 -33 0 -35 -2 -35 -35 0 -33 2 -35
        35 -35 33 0 35 -2 35 -35 0 -33 2 -35 35 -35 33 0 35 2 35 35 0 33 2 35 35 35
        33 0 35 2 35 35 0 33 -2 35 -35 35 -33 0 -35 2 -35 35 0 33 -2 35 -35 35 -33
        0 -35 -2 -35 -35z m70 -70 c0 -33 -2 -35 -35 -35 -33 0 -35 2 -35 35 0 33 2
        35 35 35 33 0 35 -2 35 -35z"/>
    </g>
</svg>