<svg version="1.0" xmlns="http://www.w3.org/2000/svg"
viewBox="0 0 512.000000 512.000000"
preserveAspectRatio="xMidYMid meet">
    <g transform="translate(0.000000,512.000000) scale(0.100000,-0.100000)"
    stroke="none" fill="#666666">
        <path d="M1458 5110 c-79 -24 -134 -89 -143 -171 -3 -24 -12 -238 -21 -475
        l-15 -432 211 -902 c117 -496 209 -904 206 -908 -4 -3 -32 -9 -64 -13 -31 -4
        -73 -10 -92 -13 l-35 -7 -230 558 c-126 306 -239 570 -250 587 -32 48 -69 69
        -127 73 -50 4 -77 -6 -428 -151 -206 -86 -386 -164 -400 -175 -14 -10 -33 -32
        -44 -50 -41 -71 -42 -68 298 -888 174 -419 316 -766 316 -771 0 -5 -25 -12
        -56 -16 -169 -20 -346 -127 -449 -271 -131 -184 -168 -409 -99 -613 38 -113
        78 -177 168 -268 90 -90 152 -129 271 -171 l80 -28 2000 0 2000 0 80 27 c219
        76 379 240 447 458 30 97 32 282 4 375 -33 112 -94 214 -176 295 -119 118
        -254 184 -406 199 -40 4 -75 9 -78 12 -3 3 0 50 6 104 8 75 7 129 -2 216 l-12
        116 157 379 c87 208 188 454 226 546 88 216 143 314 256 459 71 92 72 73 -23
        487 -53 227 -92 374 -102 386 -25 27 -58 37 -89 25 -44 -16 -605 -369 -640
        -402 -19 -18 -35 -44 -37 -61 -47 -304 -55 -333 -213 -715 -70 -168 -127 -307
        -128 -308 -1 -2 -39 13 -86 33 -46 19 -113 44 -149 53 -76 21 -72 -5 -46 253
        9 98 18 271 18 390 l1 213 44 62 c184 260 219 599 93 902 -80 195 -238 411
        -403 553 -76 66 -109 73 -153 35 -29 -26 -31 -39 -19 -152 10 -91 -4 -158 -55
        -260 -46 -93 -131 -209 -254 -349 -129 -147 -166 -231 -166 -382 0 -119 40
        -234 121 -340 l31 -42 -21 -153 c-32 -242 -41 -368 -41 -606 l0 -221 -43 -25
        c-24 -14 -71 -47 -106 -72 -34 -26 -63 -46 -65 -44 -1 2 -93 396 -205 874
        -111 479 -211 890 -222 915 -12 25 -111 212 -221 415 -211 391 -241 434 -314
        454 -45 12 -68 13 -106 1z m160 -336 c50 -93 92 -172 92 -176 0 -4 -19 -20
        -42 -35 -36 -24 -51 -28 -117 -28 l-76 0 4 195 c3 188 9 225 35 217 6 -2 53
        -79 104 -173z m1791 -89 c97 -140 168 -314 192 -467 25 -163 -37 -387 -150
        -537 l-19 -24 -253 15 -253 15 -24 29 c-13 16 -36 54 -50 84 -23 47 -27 68
        -27 145 0 119 22 165 154 320 173 202 290 397 307 513 l6 44 35 -34 c18 -18
        55 -64 82 -103z m-1538 -375 c38 -69 68 -132 69 -140 0 -59 -94 -176 -166
        -206 -87 -37 -222 -5 -291 68 l-33 34 7 147 6 147 79 0 c84 0 167 23 216 59
        15 11 31 19 36 18 5 -2 40 -59 77 -127z m323 -1191 c102 -438 186 -803 186
        -811 0 -8 -24 -51 -54 -95 -29 -44 -56 -87 -58 -94 -3 -8 -7 -12 -10 -9 -3 3
        -59 239 -126 524 -97 415 -126 524 -144 543 -45 48 -138 15 -138 -50 0 -18 48
        -238 106 -490 59 -251 105 -459 102 -462 -4 -4 -168 33 -176 40 -5 5 -372
        1578 -368 1582 2 2 29 -3 62 -12 32 -8 71 -15 86 -15 31 0 29 3 70 -175 26
        -114 47 -145 101 -145 37 0 74 28 82 63 4 13 -8 81 -24 151 -17 71 -31 134
        -31 141 0 7 12 18 28 24 15 6 48 29 72 50 25 22 46 38 46 37 1 0 86 -359 188
        -797z m2427 515 c-77 -186 -79 -229 -11 -252 40 -14 86 2 104 37 12 22 86 200
        118 281 10 24 10 24 18 5 4 -11 26 -102 49 -202 l42 -183 -34 -42 c-52 -65
        -119 -172 -171 -275 -46 -92 -46 -92 -98 -108 -69 -20 -123 -19 -201 5 -77 24
        -159 92 -197 162 l-23 43 36 110 c33 104 58 214 72 315 l7 45 171 107 c94 59
        173 105 175 103 2 -2 -24 -70 -57 -151z m-1325 -141 l91 -6 6 -57 c3 -32 2
        -87 0 -124 l-6 -66 -136 1 c-141 1 -317 18 -315 32 0 4 7 60 14 124 l13 116
        121 -7 c66 -3 162 -9 212 -13z m-2377 -330 c17 -42 30 -77 28 -79 -1 -1 -75
        -32 -165 -69 -179 -74 -208 -97 -198 -150 7 -35 48 -75 77 -75 12 0 96 31 188
        69 l168 68 31 -75 c17 -42 29 -78 27 -82 -2 -4 -26 -15 -52 -25 -124 -46 -153
        -71 -153 -126 0 -27 53 -79 80 -79 12 0 60 16 107 35 47 20 87 34 89 33 7 -7
        65 -150 62 -153 -2 -2 -75 -33 -163 -69 -88 -37 -169 -76 -179 -86 -31 -30
        -27 -87 8 -116 15 -13 38 -24 50 -24 13 0 95 29 181 65 86 36 162 64 167 63
        11 -4 68 -132 68 -153 0 -7 -14 -18 -31 -25 -17 -7 -59 -31 -92 -53 -184 -119
        -316 -287 -392 -499 -17 -50 -35 -87 -37 -82 -3 5 -142 337 -308 739 -242 583
        -300 731 -289 738 16 10 681 286 690 287 4 0 21 -35 38 -77z m2329 -93 l132
        -1 0 -42 c0 -23 -7 -96 -15 -162 -8 -66 -15 -123 -15 -127 0 -5 -33 -8 -72 -8
        -108 0 -209 -17 -345 -56 l-23 -6 0 178 c0 99 3 195 6 214 l6 36 96 -13 c54
        -7 157 -13 230 -13z m1020 -281 c68 -43 190 -79 268 -79 35 0 64 -4 64 -10 0
        -12 -251 -622 -261 -634 -4 -5 -21 18 -37 50 -61 120 -172 257 -285 350 l-48
        40 82 197 81 197 44 -40 c24 -22 65 -54 92 -71z m-746 -258 c177 -46 327 -131
        452 -255 141 -139 235 -316 277 -521 18 -87 15 -285 -6 -375 -31 -131 -31
        -136 2 -169 l29 -29 125 5 c114 5 130 4 195 -19 176 -61 298 -196 340 -374 59
        -253 -91 -514 -346 -600 -53 -18 -130 -19 -2030 -19 -1637 0 -1982 2 -2015 14
        -169 57 -293 174 -345 327 -94 271 59 571 333 655 57 18 84 20 170 15 56 -3
        119 -8 139 -12 32 -5 41 -2 66 23 25 24 29 38 34 103 22 281 192 534 443 659
        261 130 546 116 799 -39 82 -50 112 -58 145 -40 10 5 43 60 74 122 143 291
        395 484 705 543 106 20 312 13 414 -14z"/>
        <path d="M3345 4358 c-24 -22 -25 -27 -28 -154 l-2 -132 -47 -94 c-54 -106
        -59 -138 -23 -173 56 -57 121 -19 182 106 51 103 65 177 61 307 -3 110 -4 115
        -31 138 -35 30 -78 31 -112 2z"/>
        <path d="M3065 2380 c-207 -42 -398 -229 -413 -405 -4 -47 -2 -54 23 -73 15
        -12 40 -22 55 -22 30 0 80 34 80 54 0 7 16 45 36 84 57 115 139 172 281 197
        86 15 113 36 113 85 0 42 -9 59 -41 75 -30 16 -71 17 -134 5z"/>
        <path d="M1448 1760 c-83 -43 -172 -130 -208 -203 -37 -77 -53 -179 -35 -224
        35 -85 144 -63 160 33 20 120 66 190 156 238 30 16 64 38 77 49 50 46 10 138
        -60 137 -18 -1 -58 -14 -90 -30z"/>
        <path d="M2461 1344 c-234 -63 -398 -294 -378 -532 14 -173 89 -256 172 -191
        24 19 26 27 22 68 -3 25 -10 66 -17 91 -40 150 58 334 208 390 46 18 73 21
        142 18 127 -6 204 -54 283 -174 47 -72 71 -76 160 -31 79 41 143 48 218 25 48
        -14 110 -66 140 -116 30 -50 47 -62 89 -62 48 0 80 33 80 81 0 72 -112 198
        -218 246 -78 36 -222 43 -300 16 l-52 -18 -63 60 c-128 125 -317 175 -486 129z"/>
    </g>
</svg>