<svg version="1.0" xmlns="http://www.w3.org/2000/svg"
viewBox="0 0 512.000000 512.000000"
preserveAspectRatio="xMidYMid meet">
    <g transform="translate(0.000000,512.000000) scale(0.100000,-0.100000)"
    stroke="none" fill="#666666">
        <path d="M2505 5095 l-25 -24 0 -306 0 -306 25 -24 c15 -16 36 -25 55 -25 19
        0 40 9 55 25 l25 24 0 295 c0 312 -3 335 -47 355 -37 17 -62 13 -88 -14z"/>
        <path d="M1241 4724 c-12 -15 -21 -38 -21 -52 0 -29 300 -504 333 -527 31 -21
        62 -18 93 9 52 44 43 66 -120 321 -81 127 -157 240 -169 253 -30 32 -89 31
        -116 -4z"/>
        <path d="M3823 4720 c-23 -9 -334 -466 -348 -510 -18 -58 52 -118 104 -89 15
        8 93 113 188 254 132 196 162 247 162 276 1 55 -54 91 -106 69z"/>
        <path d="M2430 4010 c-567 -59 -1036 -484 -1157 -1050 -14 -65 -18 -128 -18
        -270 0 -170 3 -194 29 -294 68 -264 173 -448 372 -652 150 -153 209 -312 221
        -599 5 -112 8 -133 26 -153 l20 -22 634 0 c395 0 641 4 653 10 28 15 40 64 40
        164 0 159 39 336 99 455 13 24 65 88 117 143 151 159 235 280 302 434 80 184
        106 311 107 524 0 177 -13 265 -61 409 -153 458 -552 805 -1017 885 -113 20
        -266 26 -367 16z m286 -161 c120 -16 239 -54 359 -114 135 -67 217 -128 326
        -243 136 -144 228 -311 280 -509 29 -109 37 -353 16 -478 -42 -240 -150 -445
        -329 -628 -97 -99 -129 -144 -178 -250 -56 -122 -94 -287 -103 -447 l-2 -45
        -522 -3 c-360 -1 -523 1 -523 8 0 6 -5 54 -10 108 -17 154 -55 294 -112 411
        -44 90 -65 118 -157 215 -150 157 -206 239 -271 396 -125 303 -112 649 35 945
        64 129 116 201 221 307 182 183 400 289 684 332 55 8 213 5 286 -5z"/>
        <path d="M2505 3655 c-32 -31 -33 -78 -2 -109 19 -19 38 -24 108 -29 318 -25
        584 -203 719 -482 57 -118 79 -197 87 -320 5 -75 10 -93 29 -112 33 -33 86
        -31 114 5 21 25 22 34 17 127 -14 243 -113 462 -292 641 -157 158 -342 254
        -560 289 -137 23 -191 20 -220 -10z"/>
        <path d="M475 3888 c-50 -27 -61 -90 -22 -125 43 -38 506 -283 536 -283 66 0
        102 84 56 130 -26 24 -515 290 -535 290 -8 0 -24 -6 -35 -12z"/>
        <path d="M4585 3891 c-71 -30 -494 -267 -512 -287 -13 -14 -23 -36 -23 -50 0
        -35 42 -74 79 -74 32 0 497 244 539 283 28 26 30 86 5 110 -23 20 -63 28 -88
        18z"/>
        <path d="M1980 868 c-85 -24 -143 -103 -142 -194 0 -28 7 -65 16 -82 21 -42
        93 -101 130 -107 17 -3 286 -5 598 -3 l566 3 44 30 c124 88 116 267 -14 337
        l-43 23 -560 2 c-353 1 -573 -2 -595 -9z m1128 -160 c16 -16 15 -33 -4 -52
        -14 -14 -76 -16 -540 -16 -343 0 -532 4 -545 10 -18 10 -26 50 -12 63 3 4 250
        7 548 7 407 0 544 -3 553 -12z"/>
        <path d="M2126 385 c-153 -54 -180 -256 -47 -350 l43 -30 416 -3 c469 -3 472
        -3 536 68 57 63 69 147 31 221 -21 39 -79 87 -122 98 -61 17 -808 14 -857 -4z
        m834 -166 c9 -15 8 -24 -1 -35 -10 -12 -71 -14 -402 -12 -351 3 -391 5 -400
        20 -8 12 -7 21 2 32 12 14 60 16 402 16 382 0 388 0 399 -21z"/>
    </g>
</svg>