<?xml version="1.0" standalone="no"?>
<!DOCTYPE svg PUBLIC "-//W3C//DTD SVG 20010904//EN"
 "http://www.w3.org/TR/2001/REC-SVG-20010904/DTD/svg10.dtd">
<svg version="1.0" xmlns="http://www.w3.org/2000/svg"
 width="512.000000pt" height="512.000000pt" viewBox="0 0 512.000000 512.000000"
 preserveAspectRatio="xMidYMid meet">
    <g transform="translate(0.000000,512.000000) scale(0.100000,-0.100000)"
    fill="#E1E1E1" stroke="none">
        <path d="M620 4402 c-23 -24 -29 -39 -34 -103 -4 -40 -9 -94 -12 -119 l-5 -45
        -81 4 c-45 2 -98 -2 -118 -8 -55 -16 -115 -64 -145 -115 -26 -44 -27 -53 -125
        -1224 -65 -776 -96 -1192 -90 -1215 12 -57 52 -119 98 -154 66 -50 106 -57
        252 -44 407 37 868 -24 1312 -174 252 -84 247 -82 293 -166 49 -90 156 -200
        245 -252 36 -21 101 -49 145 -64 68 -22 98 -26 200 -27 133 0 207 15 311 65
        126 59 250 180 307 297 20 40 26 44 125 82 480 186 1016 269 1464 229 153 -14
        196 -6 264 54 52 46 82 99 90 159 3 24 -38 563 -91 1198 -106 1277 -97 1211
        -176 1289 -55 55 -106 73 -207 70 l-87 -2 -11 117 c-10 105 -14 120 -37 143
        -25 25 -31 26 -174 31 -678 22 -1303 -184 -1698 -559 l-76 -72 -62 60 c-386
        376 -949 573 -1645 573 l-204 0 -28 -28z m586 -167 c490 -59 928 -254 1197
        -533 l67 -70 0 -1116 c0 -614 -2 -1116 -4 -1116 -2 0 -51 27 -108 59 -441 250
        -1005 394 -1670 427 -132 6 -138 8 -138 28 1 11 45 540 99 1174 77 907 100
        1156 112 1163 18 13 283 3 445 -16z m3153 16 c11 -7 35 -256 112 -1168 54
        -637 99 -1167 99 -1179 0 -20 -6 -21 -177 -27 -642 -24 -1312 -209 -1720 -475
        l-23 -14 0 1123 0 1124 97 95 c259 253 651 431 1093 496 190 27 492 42 519 25z
        m-3855 -287 l46 -7 0 -41 c0 -22 -41 -511 -89 -1085 -57 -668 -86 -1053 -81
        -1067 5 -13 19 -28 30 -34 12 -7 118 -15 253 -20 307 -12 532 -39 762 -91 414
        -94 802 -258 1045 -440 39 -30 75 -49 91 -49 16 0 63 25 120 64 480 324 1183
        515 1902 516 112 0 119 1 142 25 16 15 25 36 25 55 0 17 -41 510 -90 1097 -50
        586 -90 1067 -88 1068 2 2 30 7 64 10 55 7 63 5 89 -17 l29 -25 92 -1104 c51
        -607 95 -1130 98 -1162 6 -55 4 -60 -24 -89 l-30 -30 -88 9 c-154 14 -544 9
        -687 -11 -327 -44 -786 -169 -1005 -275 -52 -24 -57 -31 -96 -109 -50 -102
        -123 -178 -213 -226 -90 -46 -159 -60 -279 -54 -89 4 -109 9 -176 41 -109 52
        -186 128 -238 235 -44 92 -52 99 -153 137 -566 217 -1146 312 -1608 264 -102
        -11 -110 -10 -135 8 -14 11 -29 30 -32 44 -4 13 37 540 90 1170 72 868 99
        1151 110 1164 27 32 54 38 124 29z"/>
    </g>
</svg>
