<?xml version="1.0" standalone="no"?>
<!DOCTYPE svg PUBLIC "-//W3C//DTD SVG 20010904//EN"
 "http://www.w3.org/TR/2001/REC-SVG-20010904/DTD/svg10.dtd">
<svg version="1.0" xmlns="http://www.w3.org/2000/svg"
 width="453.000000pt" height="512.000000pt" viewBox="0 0 453.000000 512.000000"
 preserveAspectRatio="xMidYMid meet">
    <g transform="translate(0.000000,512.000000) scale(0.100000,-0.100000)"
    fill="#E1E1E1" stroke="none">
        <path d="M2142 5110 c-75 -14 -189 -60 -255 -104 -88 -59 -188 -172 -236 -269
        -55 -112 -74 -204 -69 -337 13 -296 206 -543 493 -628 113 -34 267 -34 380 0
        217 64 384 224 458 437 24 68 31 108 35 191 8 209 -52 364 -198 511 -94 95
        -157 135 -274 174 -88 30 -242 41 -334 25z"/>
        <path d="M1575 3716 c-249 -61 -439 -325 -605 -841 -41 -128 -140 -514 -140
        -547 0 -9 -176 -220 -391 -469 -216 -249 -400 -471 -410 -494 -26 -57 -24
        -138 5 -200 40 -88 118 -137 216 -138 75 0 134 28 195 94 88 94 799 920 818
        949 10 16 34 103 53 194 31 150 109 444 120 455 2 2 4 -265 4 -595 l0 -599
        -74 -38 c-105 -54 -286 -162 -413 -248 -333 -223 -754 -592 -811 -710 -101
        -208 8 -449 233 -514 76 -23 151 -16 280 25 533 168 1244 284 1635 266 165 -7
        259 -23 349 -60 35 -14 89 -30 120 -36 153 -28 321 62 389 208 23 49 27 70 27
        152 0 82 -4 103 -27 152 -71 151 -218 229 -548 290 -101 19 -152 22 -410 22
        -318 0 -437 -10 -759 -62 l-169 -28 -4 34 c-2 19 1 36 6 38 25 7 341 55 466
        70 190 22 558 30 716 15 296 -27 547 -105 659 -203 125 -110 176 -296 125
        -461 -20 -65 -92 -176 -127 -195 -21 -12 -35 -8 182 -53 166 -34 425 -100 610
        -155 149 -44 217 -44 318 4 187 87 265 306 175 490 -63 129 -483 493 -838 728
        -154 101 -321 201 -412 245 l-48 23 1 600 1 601 20 -60 c25 -79 81 -301 112
        -448 14 -65 33 -131 43 -147 19 -29 729 -853 818 -949 61 -66 120 -94 195 -94
        98 1 176 50 216 138 29 62 31 143 5 200 -10 23 -194 245 -410 494 -215 249
        -391 460 -391 469 0 34 -92 390 -136 532 -171 540 -368 809 -629 860 -36 7
        -127 10 -230 8 -141 -3 -184 -8 -250 -27 -112 -32 -268 -32 -380 0 -69 20
        -105 24 -265 26 -121 1 -202 -3 -235 -11z"/>
    </g>
</svg>
