<?xml version="1.0" standalone="no"?>
<!DOCTYPE svg PUBLIC "-//W3C//DTD SVG 20010904//EN"
 "http://www.w3.org/TR/2001/REC-SVG-20010904/DTD/svg10.dtd">
<svg version="1.0" xmlns="http://www.w3.org/2000/svg"
 width="512.000000pt" height="512.000000pt" viewBox="0 0 512.000000 512.000000"
 preserveAspectRatio="xMidYMid meet">
    <g transform="translate(0.000000,512.000000) scale(0.100000,-0.100000)"
    fill="#E1E1E1" stroke="none">
        <path d="M1814 4672 c-79 -28 -457 -275 -733 -480 -438 -327 -794 -679 -1030
        -1021 -43 -64 -51 -81 -51 -121 0 -53 -19 -22 355 -555 170 -241 286 -400 454
        -620 128 -167 272 -322 289 -311 4 2 27 48 52 101 43 97 43 97 23 114 -43 34
        -172 200 -418 536 -12 17 -111 158 -220 315 -109 157 -218 313 -242 347 -23
        35 -43 68 -43 73 0 27 194 265 324 400 204 210 385 369 636 556 189 142 595
        413 676 451 46 23 80 13 265 -76 191 -92 273 -115 409 -115 136 0 218 23 408
        114 164 79 210 95 245 86 24 -6 220 -134 367 -240 36 -25 85 -61 110 -78 70
        -49 315 -245 436 -349 146 -125 420 -399 534 -534 98 -115 210 -263 210 -277
        0 -4 -33 -54 -73 -110 -424 -596 -734 -1008 -851 -1132 -25 -28 -46 -52 -46
        -55 0 -18 86 -191 95 -191 11 0 125 113 187 185 159 186 537 689 840 1119 124
        175 125 185 42 308 -320 470 -838 951 -1551 1437 -165 113 -207 133 -293 139
        -90 6 -169 -16 -320 -89 -178 -87 -247 -109 -340 -109 -93 0 -162 22 -340 109
        -190 92 -296 111 -406 73z"/>
        <path d="M1955 3950 c-71 -13 -396 -135 -667 -251 -371 -158 -742 -375 -910
        -532 -57 -52 -58 -54 -58 -106 0 -62 1 -63 171 -200 57 -47 138 -112 179 -146
        88 -72 240 -194 360 -289 47 -37 142 -107 211 -157 l126 -90 12 -122 c6 -67
        27 -297 47 -511 19 -214 41 -417 50 -450 101 -401 408 -677 833 -750 110 -19
        351 -21 467 -5 426 59 754 340 864 740 14 54 33 218 65 584 37 418 48 512 61
        520 164 105 372 248 529 365 28 20 148 109 267 198 119 88 221 170 227 181 14
        25 14 84 0 113 -15 32 -193 175 -340 273 -233 155 -555 330 -868 472 -421 191
        -456 197 -751 131 -80 -18 -178 -32 -240 -35 -93 -5 -125 -1 -280 31 -198 40
        -283 49 -355 36z m246 -250 c271 -57 433 -60 669 -10 158 34 213 42 255 36 85
        -11 615 -257 910 -421 120 -68 367 -227 438 -283 l37 -30 -172 -130 c-153
        -115 -511 -374 -546 -396 -11 -6 -12 20 -6 141 7 160 4 182 -43 280 -70 147
        -202 234 -443 294 -82 20 -120 23 -285 24 -204 0 -265 -10 -396 -68 l-53 -23
        -71 27 c-38 15 -105 34 -147 43 -100 21 -305 21 -423 0 -98 -17 -272 -72 -349
        -111 -78 -40 -158 -123 -202 -210 l-39 -76 1 -158 0 -157 -75 58 c-170 129
        -650 521 -651 531 0 11 156 117 280 189 223 129 493 253 860 392 274 105 248
        101 451 58z m96 -731 c23 -5 67 -18 97 -30 l56 -20 0 -450 0 -449 110 0 110 0
        0 448 0 447 28 12 c99 44 151 56 271 61 137 5 218 -5 346 -45 140 -44 199 -83
        236 -155 10 -21 19 -54 19 -74 0 -21 -29 -368 -65 -773 -71 -805 -75 -834
        -148 -981 -56 -112 -179 -239 -284 -294 -146 -75 -267 -105 -458 -113 -469
        -20 -794 170 -904 532 -29 93 -46 260 -152 1487 -15 168 -8 199 55 255 70 61
        270 131 451 157 40 6 180 -3 232 -15z"/>
    </g>
</svg>
