<?xml version="1.0" standalone="no"?>
<!DOCTYPE svg PUBLIC "-//W3C//DTD SVG 20010904//EN"
"http://www.w3.org/TR/2001/REC-SVG-20010904/DTD/svg10.dtd">
<svg version="1.0" xmlns="http://www.w3.org/2000/svg"
width="512.000000pt" height="512.000000pt" viewBox="0 0 512.000000 512.000000"
preserveAspectRatio="xMidYMid meet">
    <g transform="translate(0.000000,512.000000) scale(0.100000,-0.100000)"
    fill="#E1E1E1" stroke="none">
        <path d="M3505 4677 c-198 -66 -317 -242 -302 -445 11 -147 105 -280 246 -350
        71 -35 80 -37 170 -37 117 0 176 19 261 81 117 86 175 212 168 363 -7 159 -92
        287 -236 358 -68 34 -83 38 -171 40 -60 2 -111 -2 -136 -10z"/>
        <path d="M2255 3999 c-91 -18 -137 -38 -496 -217 l-356 -178 89 -189 c50 -105
        91 -191 93 -193 1 -1 166 79 366 179 304 152 371 182 409 182 36 1 261 -61
        276 -76 2 -1 -102 -188 -231 -413 -260 -455 -271 -482 -262 -614 6 -93 35
        -172 91 -248 37 -49 96 -96 384 -303 187 -134 345 -254 351 -267 33 -71 34
        -68 -182 -638 -113 -296 -210 -551 -216 -567 l-11 -27 226 2 225 3 180 455
        c100 250 189 488 200 529 37 142 21 306 -43 440 -27 57 -62 98 -264 301 l-234
        236 181 324 c100 179 184 328 188 332 4 4 34 -47 66 -115 52 -105 70 -132 135
        -197 87 -88 195 -149 316 -180 69 -18 112 -20 421 -20 l343 0 0 215 0 214
        -364 3 -364 3 -27 25 c-15 14 -80 131 -145 260 -172 342 -202 371 -539 531
        -273 129 -518 209 -661 214 -52 2 -117 0 -145 -6z"/>
        <path d="M1997 2025 c-84 -111 -49 -105 -640 -105 l-507 0 2 -212 3 -213 520
        0 c517 0 520 0 595 23 98 31 192 81 263 140 61 51 161 173 149 183 -17 15
        -332 249 -334 249 -2 -1 -25 -30 -51 -65z"/>
    </g>
</svg>
