<?xml version="1.0" standalone="no"?>
<!DOCTYPE svg PUBLIC "-//W3C//DTD SVG 20010904//EN"
"http://www.w3.org/TR/2001/REC-SVG-20010904/DTD/svg10.dtd">
<svg version="1.0" xmlns="http://www.w3.org/2000/svg"
width="512.000000pt" height="512.000000pt" viewBox="0 0 512.000000 512.000000"
preserveAspectRatio="xMidYMid meet">
    <g transform="translate(0.000000,512.000000) scale(0.100000,-0.100000)"
    fill="#E1E1E1" stroke="none">
        <path d="M3624 4643 l-50 -158 -171 -5 -170 -5 133 -95 c74 -52 134 -101 134
        -108 0 -11 -76 -253 -98 -312 -4 -9 7 -5 29 11 19 14 82 61 141 103 l107 78
        138 -100 c76 -55 139 -99 140 -98 2 1 -21 75 -51 163 l-54 161 137 99 136 98
        -170 5 -170 5 -50 157 c-27 87 -53 158 -56 158 -3 0 -28 -71 -55 -157z"/>
        <path d="M1975 4281 l8 -209 -54 -19 c-30 -11 -118 -42 -196 -68 -79 -27 -143
        -52 -143 -55 0 -3 89 -33 198 -66 l197 -59 5 -214 5 -213 99 143 c55 79 110
        158 123 175 l23 32 193 -59 c105 -32 196 -58 200 -56 5 1 -36 61 -90 132 -54
        72 -111 146 -126 166 l-27 35 119 170 c66 93 117 171 115 173 -2 2 -91 -27
        -199 -64 -108 -37 -197 -66 -199 -64 -1 2 -58 77 -125 167 -67 89 -124 162
        -127 162 -3 0 -3 -94 1 -209z"/>
        <path d="M2855 4151 c-121 -75 -122 -234 -2 -302 67 -37 163 -25 208 27 53 60
        62 134 27 204 -41 81 -159 117 -233 71z"/>
        <path d="M3824 3801 c-98 -60 -118 -180 -44 -265 40 -45 79 -59 143 -54 65 5
        110 34 137 88 40 79 18 170 -53 221 -33 24 -50 29 -96 29 -37 0 -66 -6 -87
        -19z"/>
        <path d="M4397 3400 l-48 -150 -165 -2 -166 -3 131 -94 c72 -52 131 -99 131
        -105 0 -6 -21 -73 -46 -149 -25 -76 -44 -141 -41 -144 3 -3 62 36 131 87 l126
        92 115 -83 c64 -46 124 -90 134 -97 16 -11 10 14 -30 139 -27 84 -49 155 -49
        158 0 4 59 49 131 101 l131 95 -165 3 -166 2 -47 150 c-26 83 -50 150 -53 150
        -3 0 -28 -68 -54 -150z"/>
        <path d="M1626 3380 c-16 -5 -42 -22 -59 -37 -79 -74 -76 -188 6 -260 125
        -110 321 14 277 176 -26 97 -124 150 -224 121z"/>
        <path d="M3064 3355 c-24 -24 -26 -32 -21 -75 21 -177 284 -450 433 -450 50 0
        74 25 74 76 0 155 -254 438 -422 469 -32 6 -41 3 -64 -20z"/>
        <path d="M2508 2862 c-234 -213 -449 -408 -477 -433 -47 -43 -51 -50 -51 -90
        1 -93 68 -210 191 -331 94 -91 183 -141 247 -136 38 3 68 28 478 398 241 217
        456 411 478 431 l40 36 -48 22 c-160 70 -335 262 -398 433 -11 32 -23 58 -27
        57 -3 0 -198 -174 -433 -387z"/>
        <path d="M1387 2745 l-35 -110 -112 -5 -112 -5 90 -63 90 -64 -34 -101 c-19
        -56 -33 -105 -32 -109 2 -3 43 22 91 58 100 73 84 74 196 -10 41 -31 76 -54
        78 -53 1 2 -13 50 -32 107 -19 56 -33 105 -31 109 2 3 43 33 90 66 l85 60
        -111 5 -111 5 -37 110 -37 110 -36 -110z"/>
        <path d="M4297 2376 c-142 -52 -158 -244 -27 -313 160 -85 324 90 229 244 -40
        65 -130 96 -202 69z"/>
        <path d="M1198 1644 c-1004 -907 -924 -827 -954 -944 -13 -53 -14 -72 -4 -127
        22 -115 113 -219 224 -253 23 -7 70 -11 116 -8 62 4 87 10 128 34 48 28 1612
        1431 1612 1447 0 4 -6 7 -14 7 -28 0 -164 101 -227 168 -76 80 -141 177 -166
        244 -9 26 -20 48 -24 48 -4 0 -315 -277 -691 -616z"/>
        <path d="M3999 1652 l-14 -157 -160 -34 -159 -35 54 -24 c30 -13 97 -42 148
        -64 l92 -40 -1 -42 c0 -22 -6 -94 -13 -158 -14 -138 -23 -139 111 15 47 53 90
        97 97 97 6 0 72 -27 146 -60 74 -32 136 -57 138 -56 1 2 -32 61 -73 131 -42
        71 -77 132 -78 136 -1 4 45 60 101 124 57 64 102 118 100 119 -1 2 -70 -12
        -152 -30 -81 -19 -152 -32 -156 -29 -4 2 -40 61 -79 130 -40 68 -76 127 -80
        130 -4 2 -14 -66 -22 -153z"/>
        <path d="M2585 1435 l-28 -94 -100 -3 -101 -3 77 -55 c42 -30 77 -60 77 -66 0
        -5 -13 -49 -29 -97 -17 -48 -28 -87 -25 -87 2 0 38 25 79 55 40 30 78 55 82
        55 5 0 42 -24 83 -54 41 -30 76 -54 77 -52 2 1 -10 42 -27 91 -16 48 -27 91
        -24 96 3 5 39 32 80 61 l76 53 -100 3 -101 3 -31 94 c-17 52 -33 95 -34 95 -2
        0 -15 -43 -31 -95z"/>
        <path d="M3292 1259 c-59 -30 -85 -70 -90 -140 -4 -49 0 -65 22 -103 46 -79
        138 -106 223 -65 114 55 126 227 21 296 -54 36 -120 41 -176 12z"/>
    </g>
</svg>
