<svg id="svg" xmlns="http://www.w3.org/2000/svg" xmlns:xlink="http://www.w3.org/1999/xlink" width="40" height="30" viewBox="0, 0, 400,309.97150997150993" version="1.1"><g id="svgg"><path id="path0" d="M34.360 1.262 C 34.300 1.440,33.278 1.636,32.087 1.698 C 30.314 1.789,27.496 2.207,25.891 2.615 C 24.323 3.014,23.876 3.223,23.876 3.557 C 23.876 3.794,23.600 3.892,23.167 3.809 C 22.707 3.722,22.188 3.933,21.694 4.409 C 21.274 4.814,20.721 5.135,20.465 5.124 C 20.000 5.104,19.652 5.313,18.641 6.221 C 18.344 6.487,17.959 6.658,17.787 6.601 C 17.614 6.543,17.031 6.918,16.491 7.434 C 15.951 7.950,15.390 8.372,15.245 8.372 C 14.792 8.372,13.939 9.494,14.185 9.765 C 14.314 9.906,14.267 9.936,14.082 9.830 C 13.649 9.584,12.335 10.492,12.571 10.874 C 12.669 11.033,12.592 11.163,12.399 11.163 C 11.926 11.163,11.144 11.971,11.384 12.211 C 11.490 12.317,11.377 12.403,11.134 12.403 C 10.690 12.403,9.737 13.606,9.853 14.020 C 9.887 14.142,9.722 14.167,9.485 14.076 C 9.205 13.969,8.865 14.343,8.507 15.155 C 8.205 15.840,7.833 16.372,7.681 16.339 C 7.529 16.306,6.973 17.047,6.445 17.984 C 5.918 18.922,5.368 19.736,5.224 19.793 C 5.079 19.850,4.959 20.269,4.956 20.724 C 4.953 21.371,4.887 21.450,4.651 21.085 C 4.407 20.707,4.350 20.747,4.346 21.300 C 4.343 21.673,4.202 22.065,4.031 22.171 C 3.860 22.276,3.721 22.703,3.721 23.119 C 3.721 23.535,3.565 23.876,3.375 23.876 C 3.184 23.876,3.099 24.146,3.185 24.476 C 3.276 24.823,3.161 25.146,2.911 25.242 C 2.675 25.332,2.481 25.700,2.481 26.057 C 2.481 26.415,2.327 26.994,2.140 27.345 C 1.865 27.857,1.881 27.932,2.217 27.730 C 2.560 27.524,2.559 27.573,2.210 28.002 C 1.976 28.291,1.899 28.527,2.040 28.527 C 2.180 28.527,2.127 28.695,1.922 28.899 C 1.718 29.104,1.550 29.732,1.550 30.295 C 1.550 30.857,1.438 31.318,1.300 31.318 C 0.934 31.318,0.885 44.689,1.250 45.128 C 1.416 45.328,1.611 45.896,1.683 46.389 C 1.754 46.883,1.902 47.636,2.010 48.062 C 2.118 48.488,2.237 48.977,2.275 49.147 C 2.312 49.318,2.425 49.597,2.524 49.767 C 2.624 49.938,2.679 50.384,2.646 50.757 C 2.614 51.131,2.733 51.411,2.912 51.378 C 3.090 51.345,3.385 51.876,3.567 52.558 C 3.993 54.160,5.069 56.416,5.790 57.221 C 6.102 57.569,6.402 58.058,6.459 58.307 C 6.515 58.556,6.759 58.980,7.002 59.250 C 7.245 59.520,7.338 59.868,7.210 60.025 C 7.082 60.182,7.098 60.212,7.246 60.092 C 7.546 59.850,8.372 60.552,8.372 61.049 C 8.372 61.500,9.846 62.919,10.075 62.690 C 10.180 62.585,10.178 62.727,10.071 63.005 C 9.940 63.346,10.086 63.576,10.520 63.714 C 10.874 63.826,11.163 64.118,11.163 64.362 C 11.163 64.763,11.539 64.943,12.171 64.843 C 12.298 64.823,12.403 64.994,12.403 65.223 C 12.403 65.791,13.476 66.724,13.796 66.435 C 13.937 66.307,13.968 66.351,13.864 66.534 C 13.621 66.961,14.834 68.005,15.651 68.073 C 15.997 68.102,16.250 68.320,16.214 68.559 C 16.176 68.812,16.918 69.369,17.997 69.896 C 19.013 70.394,19.845 70.892,19.845 71.004 C 19.845 71.181,21.129 71.795,23.876 72.930 C 24.302 73.106,24.893 73.374,25.190 73.525 C 25.486 73.675,26.071 73.798,26.489 73.798 C 26.908 73.798,27.344 73.950,27.459 74.136 C 27.573 74.321,27.921 74.406,28.232 74.325 C 28.543 74.244,29.050 74.351,29.360 74.565 C 29.669 74.778,30.411 74.933,31.008 74.909 C 32.031 74.868,33.710 75.084,35.265 75.456 C 35.645 75.546,36.038 75.488,36.139 75.325 C 36.240 75.162,36.457 75.112,36.622 75.214 C 37.050 75.479,186.224 75.420,187.907 75.155 C 188.674 75.034,189.895 74.936,190.620 74.937 C 191.345 74.938,191.938 74.807,191.938 74.646 C 191.938 74.484,192.143 74.431,192.393 74.527 C 192.644 74.623,192.934 74.562,193.039 74.392 C 193.145 74.222,193.486 74.164,193.798 74.264 C 194.111 74.363,194.456 74.299,194.566 74.121 C 194.676 73.944,195.315 73.798,195.987 73.798 C 196.659 73.798,197.209 73.659,197.209 73.488 C 197.209 73.318,197.488 73.178,197.829 73.178 C 198.171 73.178,198.450 73.039,198.450 72.868 C 198.450 72.698,198.798 72.558,199.225 72.558 C 199.651 72.558,200.000 72.419,200.000 72.248 C 200.000 72.078,200.162 71.938,200.361 71.938 C 201.089 71.938,203.101 70.877,203.101 70.493 C 203.101 70.275,203.280 70.166,203.499 70.250 C 203.718 70.334,204.201 70.120,204.572 69.775 C 204.942 69.430,205.399 69.147,205.587 69.147 C 205.774 69.147,205.859 69.035,205.774 68.898 C 205.689 68.760,206.134 68.380,206.763 68.053 C 207.392 67.727,208.285 67.037,208.748 66.520 C 209.210 66.004,209.699 65.481,209.833 65.359 C 211.656 63.699,212.093 63.204,212.093 62.801 C 212.093 62.540,212.281 62.326,212.510 62.326 C 213.092 62.326,214.057 61.194,213.813 60.798 C 213.689 60.599,213.803 60.546,214.105 60.662 C 214.377 60.766,214.577 60.730,214.550 60.581 C 214.401 59.769,214.580 59.375,214.884 59.845 C 215.127 60.221,215.185 60.177,215.189 59.612 C 215.192 59.229,215.342 58.915,215.522 58.915 C 215.703 58.915,215.764 58.775,215.659 58.605 C 215.554 58.434,215.615 58.295,215.796 58.295 C 215.976 58.295,216.124 58.085,216.124 57.829 C 216.124 57.574,216.272 57.364,216.452 57.364 C 216.633 57.364,216.696 57.227,216.592 57.058 C 216.488 56.890,216.684 56.450,217.028 56.081 C 217.372 55.712,217.590 55.307,217.512 55.182 C 217.435 55.057,217.572 54.787,217.817 54.584 C 218.062 54.380,218.419 53.702,218.610 53.076 C 218.974 51.887,219.297 51.054,219.886 49.788 C 220.079 49.374,220.155 48.819,220.054 48.557 C 219.954 48.295,220.090 47.862,220.357 47.594 C 220.648 47.304,220.791 46.763,220.715 46.245 C 220.646 45.769,220.749 45.230,220.946 45.046 C 221.778 44.269,221.193 30.043,220.273 28.703 C 220.047 28.373,219.943 27.780,220.042 27.385 C 220.149 26.958,220.083 26.667,219.879 26.667 C 219.690 26.667,219.535 26.318,219.535 25.891 C 219.535 25.465,219.400 25.116,219.235 25.116 C 219.069 25.116,219.015 24.907,219.113 24.651 C 219.211 24.395,219.163 24.186,219.007 24.186 C 218.850 24.186,218.543 23.488,218.324 22.635 C 218.106 21.782,217.800 21.162,217.646 21.258 C 217.491 21.354,217.364 21.171,217.364 20.852 C 217.364 20.533,217.085 19.972,216.744 19.606 C 216.403 19.240,216.121 18.830,216.118 18.695 C 216.110 18.309,214.359 15.822,214.204 15.977 C 214.128 16.053,213.875 15.629,213.642 15.034 C 213.408 14.440,213.124 13.953,213.009 13.953 C 212.615 13.953,210.543 11.825,210.538 11.416 C 210.534 11.116,210.453 11.131,210.233 11.473 C 209.987 11.853,209.931 11.816,209.927 11.273 C 209.923 10.676,209.188 10.062,208.616 10.180 C 208.494 10.205,208.483 9.995,208.591 9.713 C 208.699 9.431,208.659 9.279,208.502 9.374 C 208.163 9.580,207.395 8.832,207.667 8.560 C 207.771 8.457,207.588 8.371,207.261 8.371 C 206.934 8.370,206.248 7.977,205.736 7.497 C 205.225 7.017,204.213 6.363,203.488 6.043 C 202.763 5.724,202.171 5.341,202.171 5.193 C 202.171 5.046,202.041 5.005,201.882 5.103 C 201.723 5.201,201.511 5.148,201.411 4.986 C 201.094 4.474,199.368 3.745,198.899 3.925 C 198.652 4.020,198.450 3.945,198.450 3.758 C 198.450 3.343,196.298 2.407,195.791 2.602 C 195.589 2.679,195.265 2.582,195.069 2.387 C 194.874 2.192,194.214 2.075,193.601 2.128 C 192.873 2.191,192.559 2.110,192.693 1.894 C 192.831 1.669,192.127 1.578,190.497 1.610 C 188.940 1.641,188.056 1.533,187.980 1.304 C 187.819 0.823,34.520 0.780,34.360 1.262 M35.138 118.704 C 34.869 118.974,34.729 118.994,34.729 118.764 C 34.729 118.560,34.566 118.515,34.341 118.657 C 34.128 118.791,33.239 118.919,32.367 118.941 C 31.494 118.964,30.595 119.097,30.368 119.237 C 30.142 119.376,29.415 119.483,28.753 119.473 C 28.052 119.463,27.485 119.620,27.398 119.849 C 27.315 120.065,26.982 120.172,26.658 120.088 C 26.334 120.003,25.843 120.159,25.568 120.435 C 25.292 120.710,24.942 120.859,24.790 120.765 C 24.638 120.671,24.185 120.810,23.782 121.073 C 23.380 121.337,22.958 121.459,22.843 121.345 C 22.729 121.230,22.636 121.300,22.636 121.499 C 22.636 121.698,22.431 121.860,22.180 121.860 C 21.664 121.860,19.750 122.887,18.647 123.754 C 18.242 124.072,17.785 124.254,17.630 124.159 C 17.476 124.063,17.369 124.100,17.393 124.241 C 17.486 124.774,17.355 125.270,17.132 125.235 C 16.330 125.108,15.720 125.479,13.884 127.209 C 12.753 128.275,11.561 129.357,11.234 129.612 C 10.907 129.868,10.379 130.496,10.061 131.008 C 9.742 131.519,9.087 132.327,8.606 132.803 C 8.125 133.279,7.806 133.791,7.898 133.940 C 7.991 134.089,7.959 134.257,7.829 134.315 C 7.433 134.489,5.581 136.966,5.581 137.322 C 5.581 137.505,5.305 138.148,4.967 138.750 C 4.628 139.352,4.454 139.849,4.579 139.855 C 4.704 139.860,4.588 140.035,4.322 140.242 C 3.784 140.662,3.324 141.598,3.283 142.355 C 3.268 142.628,3.103 143.046,2.916 143.286 C 2.460 143.871,2.109 144.796,1.986 145.736 C 1.668 148.174,1.493 148.991,1.259 149.138 C 0.890 149.369,0.921 162.550,1.291 163.002 C 1.456 163.203,1.603 163.801,1.618 164.331 C 1.633 164.861,1.868 165.424,2.141 165.583 C 2.506 165.797,2.524 165.875,2.210 165.882 C 1.849 165.890,1.849 165.971,2.210 166.416 C 2.549 166.834,2.551 166.890,2.222 166.692 C 1.898 166.497,1.906 166.634,2.259 167.330 C 2.506 167.818,2.670 168.462,2.622 168.761 C 2.574 169.060,2.662 169.227,2.818 169.130 C 3.054 168.985,3.181 169.630,3.074 170.430 C 3.060 170.539,3.164 170.714,3.307 170.818 C 3.719 171.120,4.341 172.351,4.341 172.864 C 4.341 173.122,4.481 173.333,4.651 173.333 C 4.822 173.333,4.961 173.543,4.961 173.798 C 4.961 174.054,5.101 174.264,5.271 174.264 C 5.442 174.264,5.581 174.543,5.581 174.884 C 5.581 175.225,5.860 175.783,6.202 176.124 C 6.543 176.465,6.787 176.809,6.744 176.889 C 6.702 176.969,6.911 177.319,7.209 177.668 C 7.508 178.016,7.752 178.509,7.752 178.763 C 7.752 179.017,7.926 179.226,8.140 179.227 C 8.353 179.228,8.859 179.716,9.265 180.312 C 10.189 181.669,13.185 184.806,13.558 184.806 C 13.710 184.806,14.315 185.361,14.902 186.039 C 15.563 186.804,16.241 187.275,16.685 187.280 C 17.079 187.284,17.321 187.416,17.223 187.575 C 17.125 187.733,17.361 187.958,17.747 188.075 C 18.134 188.192,18.729 188.538,19.070 188.843 C 20.034 189.704,22.024 190.729,22.346 190.530 C 22.505 190.432,22.636 190.496,22.636 190.673 C 22.636 190.851,22.984 191.083,23.411 191.190 C 23.837 191.298,24.186 191.524,24.186 191.695 C 24.186 191.865,24.382 191.929,24.621 191.837 C 24.860 191.746,25.144 191.759,25.253 191.868 C 25.361 191.976,25.828 192.115,26.291 192.175 C 26.753 192.236,27.178 192.417,27.235 192.577 C 27.292 192.737,28.033 192.868,28.881 192.868 C 29.730 192.868,30.350 192.988,30.259 193.135 C 30.169 193.282,31.070 193.412,32.262 193.424 C 33.748 193.439,34.364 193.340,34.221 193.109 C 34.097 192.908,34.157 192.862,34.371 192.994 C 34.568 193.115,34.729 193.381,34.729 193.584 C 34.729 193.961,258.658 193.994,259.268 193.617 C 259.415 193.526,259.535 193.576,259.535 193.728 C 259.535 194.171,273.274 194.144,273.555 193.700 C 273.720 193.442,273.792 193.471,273.798 193.798 C 273.806 194.182,273.855 194.189,274.077 193.838 C 274.266 193.541,275.012 193.416,276.553 193.423 C 277.767 193.429,278.760 193.306,278.760 193.151 C 278.760 192.995,279.178 192.868,279.690 192.868 C 280.225 192.868,280.622 192.704,280.625 192.481 C 280.628 192.221,280.731 192.247,280.935 192.558 C 281.145 192.877,281.313 192.917,281.473 192.683 C 281.730 192.307,283.264 191.817,284.109 191.841 C 284.407 191.850,284.651 191.670,284.651 191.442 C 284.651 191.214,284.842 191.101,285.076 191.190 C 285.309 191.280,286.011 191.066,286.635 190.715 C 287.260 190.364,287.906 190.078,288.071 190.078 C 288.237 190.078,288.616 189.859,288.915 189.593 C 290.692 188.004,291.690 187.296,292.159 187.292 C 292.450 187.289,293.236 186.735,293.904 186.060 C 294.571 185.386,295.189 184.905,295.276 184.991 C 295.362 185.078,295.727 184.758,296.085 184.280 C 296.991 183.073,297.163 182.887,298.108 182.084 C 298.568 181.693,298.844 181.221,298.725 181.028 C 298.602 180.830,298.647 180.765,298.830 180.878 C 299.007 180.987,299.477 180.600,299.876 180.019 C 300.274 179.437,300.709 179.029,300.843 179.111 C 300.976 179.194,301.085 178.938,301.085 178.543 C 301.085 178.147,301.364 177.649,301.705 177.436 C 302.047 177.223,302.326 176.841,302.326 176.587 C 302.326 176.332,302.444 176.124,302.589 176.124 C 302.734 176.124,303.111 175.496,303.428 174.729 C 303.744 173.961,304.114 173.333,304.250 173.333 C 304.385 173.333,304.496 173.124,304.496 172.868 C 304.496 172.612,304.636 172.403,304.806 172.403 C 304.977 172.403,305.116 172.054,305.116 171.628 C 305.116 171.202,305.256 170.853,305.426 170.853 C 305.597 170.853,305.736 170.496,305.736 170.061 C 305.736 169.625,306.028 168.629,306.383 167.848 C 306.739 167.067,307.107 165.680,307.202 164.765 C 307.296 163.850,307.500 163.101,307.654 163.101 C 308.011 163.101,307.939 149.211,307.580 149.085 C 307.435 149.034,307.245 148.504,307.158 147.907 C 306.867 145.891,306.467 144.345,306.037 143.566 C 305.802 143.140,305.645 142.559,305.688 142.276 C 305.731 141.992,305.620 141.670,305.441 141.560 C 305.262 141.449,305.116 141.088,305.116 140.757 C 305.116 140.426,304.993 140.155,304.842 140.155 C 304.692 140.155,304.492 139.862,304.398 139.504 C 304.294 139.105,304.087 138.940,303.864 139.077 C 303.608 139.235,303.562 139.106,303.709 138.643 C 303.833 138.253,303.783 137.984,303.587 137.984 C 303.405 137.984,303.256 137.766,303.256 137.499 C 303.256 137.231,302.907 136.556,302.481 135.997 C 302.054 135.438,301.703 134.784,301.701 134.544 C 301.697 134.190,301.640 134.195,301.395 134.574 C 301.154 134.947,301.094 134.894,301.090 134.310 C 301.087 133.900,300.665 133.190,300.122 132.683 C 299.593 132.188,299.242 131.783,299.344 131.783 C 299.804 131.783,297.220 129.074,295.054 127.287 C 294.228 126.605,293.373 125.872,293.155 125.659 C 292.936 125.446,292.525 125.271,292.241 125.271 C 291.957 125.271,291.654 125.002,291.568 124.673 C 291.482 124.343,291.251 124.135,291.055 124.211 C 290.858 124.286,290.326 124.003,289.872 123.582 C 289.418 123.161,288.686 122.726,288.244 122.615 C 287.803 122.504,287.442 122.289,287.442 122.137 C 287.442 121.985,287.163 121.860,286.822 121.860 C 286.481 121.860,286.202 121.721,286.202 121.550 C 286.202 121.380,285.931 121.240,285.600 121.240 C 285.269 121.240,284.912 121.101,284.806 120.930 C 284.701 120.760,284.297 120.620,283.909 120.620 C 283.521 120.620,283.109 120.525,282.992 120.408 C 282.645 120.061,280.616 119.432,280.799 119.728 C 280.891 119.878,280.819 120.000,280.638 120.000 C 280.458 120.000,280.310 119.845,280.310 119.655 C 280.310 119.449,279.941 119.364,279.396 119.444 C 278.894 119.517,278.547 119.473,278.626 119.345 C 278.705 119.217,278.628 119.025,278.455 118.918 C 278.281 118.811,278.140 118.848,278.140 119.000 C 278.140 119.152,277.936 119.276,277.688 119.276 C 277.440 119.276,277.306 119.165,277.390 119.028 C 277.474 118.892,276.702 118.830,275.673 118.892 C 274.627 118.954,273.879 118.881,273.974 118.726 C 274.117 118.495,273.794 118.391,272.868 118.373 C 272.783 118.371,272.318 118.463,271.834 118.577 C 271.351 118.691,271.024 118.674,271.107 118.540 C 271.395 118.075,35.604 118.239,35.138 118.704 M34.563 234.938 C 34.339 235.162,33.508 235.261,32.408 235.194 C 31.424 235.134,30.252 235.234,29.805 235.417 C 29.358 235.600,28.622 235.720,28.170 235.684 C 27.718 235.648,27.256 235.767,27.144 235.949 C 27.032 236.130,26.667 236.279,26.334 236.279 C 26.001 236.279,25.486 236.402,25.190 236.553 C 24.893 236.704,24.302 236.968,23.876 237.141 C 22.741 237.601,19.787 239.037,19.070 239.477 C 16.676 240.946,15.815 241.611,15.974 241.868 C 16.074 242.031,15.962 242.089,15.725 241.998 C 15.183 241.790,11.646 245.109,11.927 245.563 C 12.045 245.755,11.856 245.891,11.473 245.891 C 11.112 245.891,10.902 246.031,11.008 246.202 C 11.113 246.372,10.912 246.512,10.561 246.512 C 10.210 246.512,9.922 246.645,9.922 246.808 C 9.922 246.970,9.574 247.452,9.147 247.879 C 8.721 248.305,8.372 248.830,8.372 249.045 C 8.372 249.260,8.085 249.720,7.734 250.067 C 6.740 251.049,4.940 253.978,5.135 254.294 C 5.232 254.450,5.105 254.657,4.853 254.753 C 4.602 254.850,4.214 255.547,3.991 256.302 C 3.768 257.057,3.476 257.674,3.343 257.674 C 3.210 257.674,3.117 257.779,3.137 257.907 C 3.230 258.492,3.077 258.936,2.834 258.787 C 2.688 258.696,2.606 258.967,2.652 259.388 C 2.698 259.810,2.622 260.155,2.482 260.155 C 2.343 260.155,2.307 260.456,2.403 260.824 C 2.519 261.266,2.462 261.421,2.236 261.281 C 2.017 261.146,1.936 261.295,2.013 261.691 C 2.079 262.033,2.001 262.393,1.841 262.492 C 1.681 262.591,1.550 263.144,1.550 263.721 C 1.550 264.298,1.412 264.855,1.244 264.959 C 0.861 265.196,0.898 278.760,1.282 278.760 C 1.429 278.760,1.550 279.303,1.550 279.967 C 1.550 280.748,1.713 281.236,2.010 281.350 C 2.272 281.451,2.391 281.732,2.287 282.004 C 2.187 282.266,2.210 282.725,2.340 283.023 C 2.470 283.322,2.548 283.798,2.514 284.081 C 2.479 284.364,2.768 284.817,3.155 285.088 C 3.542 285.360,3.688 285.581,3.480 285.581 C 3.271 285.581,3.101 285.729,3.101 285.910 C 3.101 286.090,3.240 286.152,3.411 286.047 C 3.591 285.935,3.721 286.244,3.721 286.785 C 3.721 287.297,3.860 287.802,4.031 287.907 C 4.202 288.012,4.341 288.378,4.341 288.719 C 4.341 289.060,4.481 289.253,4.651 289.147 C 4.822 289.042,4.961 289.243,4.961 289.594 C 4.961 289.945,5.066 290.233,5.194 290.235 C 5.465 290.237,6.647 292.146,6.574 292.463 C 6.546 292.581,6.939 293.093,7.448 293.602 C 7.956 294.110,8.372 294.754,8.372 295.033 C 8.372 295.312,8.512 295.454,8.682 295.349 C 8.853 295.243,8.992 295.375,8.992 295.641 C 8.992 295.906,9.202 296.124,9.457 296.124 C 9.713 296.124,9.922 296.333,9.922 296.589 C 9.922 296.845,10.047 297.054,10.200 297.054 C 10.608 297.054,12.253 298.672,12.492 299.307 C 12.605 299.608,13.038 299.984,13.454 300.142 C 13.870 300.300,14.302 300.717,14.413 301.068 C 14.524 301.418,14.877 301.705,15.197 301.705 C 15.517 301.705,15.961 301.955,16.184 302.261 C 16.738 303.021,18.598 304.296,18.824 304.070 C 18.924 303.970,19.265 304.185,19.581 304.549 C 19.897 304.913,20.159 305.085,20.165 304.931 C 20.170 304.777,20.380 304.922,20.630 305.253 C 20.880 305.584,21.085 305.742,21.085 305.605 C 21.085 305.468,21.429 305.580,21.850 305.856 C 22.270 306.131,22.898 306.357,23.245 306.357 C 23.592 306.357,23.876 306.511,23.876 306.700 C 23.876 306.889,24.075 306.967,24.318 306.873 C 24.562 306.780,24.912 306.885,25.096 307.107 C 25.280 307.329,26.093 307.598,26.902 307.705 C 29.029 307.986,29.414 308.071,29.655 308.311 C 29.774 308.430,30.886 308.527,32.126 308.527 C 33.367 308.527,34.468 308.666,34.573 308.837 C 34.700 309.042,90.517 309.145,200.345 309.144 C 309.850 309.143,365.861 309.039,365.735 308.835 C 365.615 308.641,366.448 308.527,367.982 308.527 C 369.322 308.527,370.551 308.398,370.713 308.240 C 370.875 308.082,371.571 307.870,372.260 307.769 C 374.432 307.452,374.935 307.320,375.380 306.950 C 375.619 306.753,375.814 306.705,375.814 306.846 C 375.814 306.986,375.981 306.933,376.186 306.729 C 376.391 306.524,376.792 306.357,377.078 306.357 C 377.364 306.357,377.765 306.156,377.969 305.910 C 378.173 305.664,378.545 305.542,378.795 305.638 C 379.076 305.746,379.216 305.650,379.160 305.387 C 379.110 305.153,379.259 305.001,379.490 305.050 C 380.159 305.190,380.839 304.482,380.466 304.032 C 380.226 303.743,380.354 303.673,380.991 303.743 C 381.844 303.837,383.639 303.005,383.405 302.625 C 383.334 302.512,383.656 302.230,384.119 301.999 C 385.733 301.195,391.106 295.914,390.805 295.427 C 390.685 295.233,390.749 295.189,390.962 295.321 C 391.170 295.449,391.412 295.306,391.535 294.981 C 391.651 294.672,392.118 294.045,392.572 293.588 C 393.026 293.131,393.631 292.265,393.916 291.663 C 394.202 291.061,394.571 290.485,394.737 290.382 C 394.903 290.280,395.039 289.917,395.039 289.576 C 395.039 289.235,395.178 289.042,395.349 289.147 C 395.519 289.253,395.659 289.060,395.659 288.719 C 395.659 288.378,395.812 288.004,395.999 287.889 C 396.186 287.773,396.279 287.269,396.205 286.768 C 396.108 286.108,396.266 285.671,396.781 285.177 C 397.296 284.682,397.440 284.284,397.306 283.721 C 397.205 283.295,397.240 283.055,397.384 283.189 C 397.707 283.491,398.439 281.134,398.445 279.767 C 398.447 279.213,398.589 278.760,398.760 278.760 C 399.182 278.760,399.182 265.222,398.760 264.961 C 398.589 264.856,398.450 264.440,398.450 264.036 C 398.450 262.076,397.730 260.109,397.074 260.274 C 396.533 260.409,396.506 260.376,396.899 260.062 C 397.391 259.668,397.644 258.491,397.174 258.781 C 397.023 258.875,396.899 258.729,396.899 258.457 C 396.899 258.185,396.674 257.619,396.398 257.198 C 396.123 256.778,395.967 256.434,396.051 256.434 C 396.190 256.434,395.578 255.235,393.835 252.093 C 393.504 251.496,392.807 250.534,392.285 249.955 C 391.764 249.376,391.404 248.793,391.487 248.659 C 391.569 248.526,391.370 248.332,391.043 248.228 C 390.716 248.125,390.367 247.711,390.266 247.310 C 390.153 246.860,389.770 246.502,389.268 246.376 C 388.820 246.263,388.531 246.094,388.625 246.000 C 388.855 245.770,387.505 244.387,387.213 244.553 C 387.087 244.625,387.074 244.432,387.185 244.125 C 387.295 243.817,387.283 243.658,387.158 243.770 C 387.032 243.883,386.440 243.499,385.841 242.917 C 384.828 241.933,384.421 241.719,383.775 241.831 C 383.635 241.856,383.600 241.746,383.698 241.588 C 383.796 241.429,383.074 240.849,382.093 240.298 C 381.112 239.747,380.240 239.208,380.155 239.101 C 379.843 238.709,377.170 237.490,376.515 237.440 C 376.144 237.412,375.907 237.323,375.987 237.243 C 376.192 237.038,374.319 236.279,373.608 236.279 C 373.286 236.279,373.023 236.165,373.023 236.027 C 373.023 235.888,372.570 235.786,372.016 235.799 C 371.461 235.813,370.669 235.655,370.254 235.447 C 369.812 235.226,368.724 235.119,367.624 235.190 C 366.593 235.255,365.665 235.174,365.563 235.010 C 365.420 234.777,41.792 234.530,40.399 234.762 C 40.265 234.784,40.085 234.774,40.000 234.740 C 39.339 234.475,34.863 234.639,34.563 234.938 " stroke="none" fill="#f4f4f4" fill-rule="evenodd"></path><path id="path1" d="M28.527 1.777 C 27.930 1.847,27.330 2.013,27.194 2.146 C 27.058 2.278,27.582 2.290,28.360 2.172 C 29.137 2.054,29.865 1.866,29.977 1.754 C 30.089 1.642,30.053 1.573,29.897 1.600 C 29.740 1.627,29.124 1.707,28.527 1.777 M192.946 2.074 C 193.244 2.152,193.733 2.152,194.031 2.074 C 194.329 1.996,194.085 1.932,193.488 1.932 C 192.891 1.932,192.647 1.996,192.946 2.074 M9.654 13.216 C 9.347 13.562,9.325 13.775,9.574 13.982 C 9.763 14.140,9.848 14.174,9.764 14.059 C 9.680 13.943,9.842 13.593,10.125 13.281 C 10.408 12.969,10.512 12.718,10.358 12.725 C 10.204 12.731,9.887 12.952,9.654 13.216 M2.481 50.765 C 2.481 50.964,2.620 51.212,2.791 51.318 C 2.961 51.423,3.101 51.780,3.101 52.111 C 3.101 52.442,3.236 52.713,3.401 52.713 C 3.743 52.713,3.506 51.921,2.894 51.016 C 2.667 50.680,2.481 50.567,2.481 50.765 M212.098 63.023 C 212.102 63.587,212.160 63.632,212.403 63.256 C 212.792 62.655,212.792 62.326,212.403 62.326 C 212.233 62.326,212.095 62.640,212.098 63.023 M186.806 75.379 C 186.290 75.581,186.323 75.619,187.036 75.637 C 187.495 75.649,187.942 75.543,188.030 75.401 C 188.230 75.077,187.605 75.066,186.806 75.379 M81.032 75.581 C 97.717 75.626,124.926 75.626,141.498 75.581 C 158.069 75.537,144.419 75.501,111.163 75.501 C 77.907 75.501,64.348 75.537,81.032 75.581 M38.376 118.359 C 38.761 118.433,39.320 118.430,39.616 118.353 C 39.912 118.275,39.597 118.214,38.915 118.218 C 38.233 118.221,37.990 118.285,38.376 118.359 M42.558 118.353 C 42.857 118.431,43.345 118.431,43.643 118.353 C 43.942 118.275,43.698 118.211,43.101 118.211 C 42.504 118.211,42.260 118.275,42.558 118.353 M45.659 118.362 C 46.128 118.433,46.895 118.433,47.364 118.362 C 47.833 118.291,47.450 118.232,46.512 118.232 C 45.574 118.232,45.190 118.291,45.659 118.362 M103.178 118.372 C 131.360 118.416,177.477 118.416,205.659 118.372 C 233.841 118.328,210.783 118.293,154.419 118.293 C 98.054 118.293,74.996 118.328,103.178 118.372 M261.473 118.362 C 261.942 118.433,262.709 118.433,263.178 118.362 C 263.647 118.291,263.264 118.232,262.326 118.232 C 261.388 118.232,261.004 118.291,261.473 118.362 M265.194 118.353 C 265.492 118.431,265.981 118.431,266.279 118.353 C 266.578 118.275,266.333 118.211,265.736 118.211 C 265.140 118.211,264.895 118.275,265.194 118.353 M270.075 118.447 C 270.840 118.568,271.817 118.566,272.245 118.444 C 272.743 118.302,272.241 118.223,270.853 118.225 C 268.894 118.228,268.818 118.250,270.075 118.447 M29.949 119.269 C 29.801 119.652,29.850 119.699,30.148 119.457 C 30.365 119.281,30.822 119.068,31.163 118.984 C 31.652 118.864,31.610 118.824,30.963 118.796 C 30.465 118.774,30.067 118.959,29.949 119.269 M306.082 168.269 C 306.063 168.468,305.956 168.887,305.846 169.199 C 305.690 169.640,305.731 169.688,306.030 169.413 C 306.242 169.218,306.348 168.799,306.267 168.483 C 306.185 168.166,306.102 168.070,306.082 168.269 M297.252 182.833 C 296.780 183.271,296.464 183.699,296.550 183.785 C 296.636 183.871,297.079 183.570,297.533 183.115 C 298.610 182.038,298.369 181.797,297.252 182.833 M290.896 187.917 C 290.493 188.253,290.309 188.527,290.486 188.527 C 290.663 188.527,291.011 188.324,291.259 188.077 C 291.506 187.829,291.795 187.713,291.901 187.818 C 292.007 187.924,292.093 187.848,292.093 187.649 C 292.093 187.135,291.739 187.215,290.896 187.917 M104.264 194.031 C 131.849 194.075,176.988 194.075,204.574 194.031 C 232.159 193.987,209.589 193.952,154.419 193.952 C 99.248 193.952,76.678 193.987,104.264 194.031 M34.319 234.622 C 34.207 234.734,33.591 234.931,32.949 235.060 L 31.783 235.295 33.042 235.265 C 33.734 235.248,34.473 235.051,34.682 234.827 C 35.059 234.424,34.712 234.229,34.319 234.622 M41.938 234.632 C 42.236 234.710,42.725 234.710,43.023 234.632 C 43.322 234.554,43.078 234.491,42.481 234.491 C 41.884 234.491,41.640 234.554,41.938 234.632 M45.039 234.641 C 45.508 234.712,46.275 234.712,46.744 234.641 C 47.213 234.570,46.829 234.512,45.891 234.512 C 44.953 234.512,44.570 234.570,45.039 234.641 M125.349 234.651 C 166.407 234.694,233.593 234.694,274.651 234.651 C 315.709 234.608,282.116 234.572,200.000 234.572 C 117.884 234.572,84.291 234.608,125.349 234.651 M353.256 234.641 C 353.725 234.712,354.492 234.712,354.961 234.641 C 355.430 234.570,355.047 234.512,354.109 234.512 C 353.171 234.512,352.787 234.570,353.256 234.641 M356.977 234.632 C 357.275 234.710,357.764 234.710,358.062 234.632 C 358.360 234.554,358.116 234.491,357.519 234.491 C 356.922 234.491,356.678 234.554,356.977 234.632 M365.263 234.768 C 365.503 235.024,366.266 235.248,366.958 235.265 L 368.217 235.295 367.132 235.054 C 366.535 234.921,365.772 234.697,365.437 234.556 C 364.903 234.333,364.881 234.359,365.263 234.768 M1.923 282.152 C 1.883 282.676,2.073 283.192,2.401 283.449 C 2.895 283.836,2.906 283.825,2.522 283.335 C 2.288 283.037,2.170 282.514,2.260 282.173 C 2.349 281.831,2.325 281.491,2.206 281.417 C 2.087 281.343,1.959 281.674,1.923 282.152 M396.612 285.318 C 395.981 285.995,396.013 286.516,396.685 286.507 C 396.907 286.504,396.869 286.382,396.589 286.202 C 396.333 286.036,396.265 285.899,396.437 285.896 C 396.609 285.894,396.924 285.612,397.137 285.271 C 397.645 284.458,397.392 284.481,396.612 285.318 M390.853 295.453 C 390.939 295.539,390.778 295.864,390.495 296.176 C 390.213 296.489,390.108 296.740,390.262 296.734 C 390.779 296.716,391.644 295.297,391.138 295.297 C 390.896 295.297,390.768 295.367,390.853 295.453 M13.333 300.391 C 13.333 300.520,13.621 300.805,13.972 301.025 C 14.562 301.393,14.585 301.375,14.271 300.789 C 13.942 300.174,13.333 299.915,13.333 300.391 M386.202 300.392 C 386.031 300.518,385.682 300.893,385.426 301.226 C 384.965 301.827,384.968 301.827,385.804 301.226 C 386.268 300.893,386.652 300.516,386.657 300.388 C 386.669 300.101,386.597 300.102,386.202 300.392 M380.313 303.881 C 380.390 304.006,380.811 304.109,381.248 304.109 C 382.232 304.109,382.041 303.858,380.966 303.740 C 380.530 303.692,380.236 303.756,380.313 303.881 M27.124 307.895 C 27.234 308.072,27.687 308.217,28.132 308.217 C 29.104 308.217,28.992 308.069,27.803 307.783 C 27.227 307.645,26.993 307.683,27.124 307.895 M371.473 307.934 C 370.747 308.141,370.760 308.157,371.687 308.186 C 372.231 308.203,372.748 308.101,372.836 307.959 C 373.030 307.645,372.514 307.636,371.473 307.934 " stroke="none" fill="#f8f4f4" fill-rule="evenodd"></path></g></svg>