<?xml version="1.0" standalone="no"?>
<!DOCTYPE svg PUBLIC "-//W3C//DTD SVG 20010904//EN"
 "http://www.w3.org/TR/2001/REC-SVG-20010904/DTD/svg10.dtd">
<svg version="1.0" xmlns="http://www.w3.org/2000/svg"
 width="100pt" height="100pt" viewBox="0 0 512.000000 512.000000"
 preserveAspectRatio="xMidYMid meet">
    <g transform="translate(0.000000,512.000000) scale(0.100000,-0.100000)"
    fill="#000000" stroke="none">
    <path d="M543 4461 c-72 -24 -127 -65 -163 -119 -63 -96 -60 -4 -60 -1604 l0
    -1458 -160 0 -160 0 0 -25 c0 -14 7 -60 16 -102 41 -199 166 -360 349 -448
    143 -69 11 -65 2195 -65 1759 0 1979 2 2047 16 199 41 360 166 448 349 32 66
    65 194 65 250 l0 25 -160 0 -160 0 -2 1478 -3 1477 -26 56 c-33 71 -87 125
    -158 158 l-56 26 -1980 2 c-1885 2 -1982 2 -2032 -16z m3937 -1741 l0 -1440
    -1920 0 -1920 0 0 1440 0 1440 1920 0 1920 0 0 -1440z"/>
    </g>
</svg>
